<svg id="visual" viewBox="0 0 960 540" width="960" height="540" xmlns="http://www.w3.org/2000/svg" xmlns:xlink="http://www.w3.org/1999/xlink" version="1.1"><path d="M0 152L14.5 150.2C29 148.3 58 144.7 87.2 137.5C116.3 130.3 145.7 119.7 174.8 111.7C204 103.7 233 98.3 262 113.7C291 129 320 165 349 164C378 163 407 125 436.2 108.8C465.3 92.7 494.7 98.3 523.8 99.3C553 100.3 582 96.7 611 102C640 107.3 669 121.7 698 136C727 150.3 756 164.7 785.2 171.8C814.3 179 843.7 179 872.8 183.5C902 188 931 197 945.5 201.5L960 206L960 0L945.5 0C931 0 902 0 872.8 0C843.7 0 814.3 0 785.2 0C756 0 727 0 698 0C669 0 640 0 611 0C582 0 553 0 523.8 0C494.7 0 465.3 0 436.2 0C407 0 378 0 349 0C320 0 291 0 262 0C233 0 204 0 174.8 0C145.7 0 116.3 0 87.2 0C58 0 29 0 14.5 0L0 0Z" fill="#6198ff"></path><path d="M0 255L14.5 260.3C29 265.7 58 276.3 87.2 284.3C116.3 292.3 145.7 297.7 174.8 307.7C204 317.7 233 332.3 262 336C291 339.7 320 332.3 349 321.5C378 310.7 407 296.3 436.2 299C465.3 301.7 494.7 321.3 523.8 321.3C553 321.3 582 301.7 611 293.7C640 285.7 669 289.3 698 284.8C727 280.3 756 267.7 785.2 264.8C814.3 262 843.7 269 872.8 275.3C902 281.7 931 287.3 945.5 290.2L960 293L960 204L945.5 199.5C931 195 902 186 872.8 181.5C843.7 177 814.3 177 785.2 169.8C756 162.7 727 148.3 698 134C669 119.7 640 105.3 611 100C582 94.7 553 98.3 523.8 97.3C494.7 96.3 465.3 90.7 436.2 106.8C407 123 378 161 349 162C320 163 291 127 262 111.7C233 96.3 204 101.7 174.8 109.7C145.7 117.7 116.3 128.3 87.2 135.5C58 142.7 29 146.3 14.5 148.2L0 150Z" fill="#3c80ff"></path><path d="M0 309L14.5 311.7C29 314.3 58 319.7 87.2 326.8C116.3 334 145.7 343 174.8 355.7C204 368.3 233 384.7 262 394.5C291 404.3 320 407.7 349 405.8C378 404 407 397 436.2 404.3C465.3 411.7 494.7 433.3 523.8 425.2C553 417 582 379 611 360C640 341 669 341 698 343.7C727 346.3 756 351.7 785.2 358.8C814.3 366 843.7 375 872.8 374.2C902 373.3 931 362.7 945.5 357.3L960 352L960 291L945.5 288.2C931 285.3 902 279.7 872.8 273.3C843.7 267 814.3 260 785.2 262.8C756 265.7 727 278.3 698 282.8C669 287.3 640 283.7 611 291.7C582 299.7 553 319.3 523.8 319.3C494.7 319.3 465.3 299.7 436.2 297C407 294.3 378 308.7 349 319.5C320 330.3 291 337.7 262 334C233 330.3 204 315.7 174.8 305.7C145.7 295.7 116.3 290.3 87.2 282.3C58 274.3 29 263.7 14.5 258.3L0 253Z" fill="#0066ff"></path><path d="M0 401L14.5 400C29 399 58 397 87.2 402.3C116.3 407.7 145.7 420.3 174.8 433C204 445.7 233 458.3 262 466.5C291 474.7 320 478.3 349 478.3C378 478.3 407 474.7 436.2 476.3C465.3 478 494.7 485 523.8 477.8C553 470.7 582 449.3 611 430.5C640 411.7 669 395.3 698 398C727 400.7 756 422.3 785.2 430.5C814.3 438.7 843.7 433.3 872.8 431.5C902 429.7 931 431.3 945.5 432.2L960 433L960 350L945.5 355.3C931 360.7 902 371.3 872.8 372.2C843.7 373 814.3 364 785.2 356.8C756 349.7 727 344.3 698 341.7C669 339 640 339 611 358C582 377 553 415 523.8 423.2C494.7 431.3 465.3 409.7 436.2 402.3C407 395 378 402 349 403.8C320 405.7 291 402.3 262 392.5C233 382.7 204 366.3 174.8 353.7C145.7 341 116.3 332 87.2 324.8C58 317.7 29 312.3 14.5 309.7L0 307Z" fill="#0059dd"></path><path d="M0 541L14.5 541C29 541 58 541 87.2 541C116.3 541 145.7 541 174.8 541C204 541 233 541 262 541C291 541 320 541 349 541C378 541 407 541 436.2 541C465.3 541 494.7 541 523.8 541C553 541 582 541 611 541C640 541 669 541 698 541C727 541 756 541 785.2 541C814.3 541 843.7 541 872.8 541C902 541 931 541 945.5 541L960 541L960 431L945.5 430.2C931 429.3 902 427.7 872.8 429.5C843.7 431.3 814.3 436.7 785.2 428.5C756 420.3 727 398.7 698 396C669 393.3 640 409.7 611 428.5C582 447.3 553 468.7 523.8 475.8C494.7 483 465.3 476 436.2 474.3C407 472.7 378 476.3 349 476.3C320 476.3 291 472.7 262 464.5C233 456.3 204 443.7 174.8 431C145.7 418.3 116.3 405.7 87.2 400.3C58 395 29 397 14.5 398L0 399Z" fill="#004cbb"></path></svg>