<svg id="visual" viewBox="0 0 900 600" width="900" height="600" xmlns="http://www.w3.org/2000/svg" xmlns:xlink="http://www.w3.org/1999/xlink" version="1.1"><path d="M0 49L113 43L225 61L338 43L450 73L563 67L675 43L788 61L900 43L900 0L788 0L675 0L563 0L450 0L338 0L225 0L113 0L0 0Z" fill="#0d9488"></path><path d="M0 109L113 127L225 133L338 109L450 151L563 115L675 103L788 115L900 127L900 41L788 59L675 41L563 65L450 71L338 41L225 59L113 41L0 47Z" fill="#14a093"></path><path d="M0 199L113 223L225 205L338 187L450 223L563 211L675 157L788 169L900 199L900 125L788 113L675 101L563 113L450 149L338 107L225 131L113 125L0 107Z" fill="#1aad9e"></path><path d="M0 301L113 301L225 289L338 301L450 313L563 301L675 271L788 289L900 271L900 197L788 167L675 155L563 209L450 221L338 185L225 203L113 221L0 197Z" fill="#20baa9"></path><path d="M0 463L113 421L225 421L338 415L450 433L563 445L675 445L788 475L900 415L900 269L788 287L675 269L563 299L450 311L338 299L225 287L113 299L0 299Z" fill="#27c7b4"></path><path d="M0 601L113 601L225 601L338 601L450 601L563 601L675 601L788 601L900 601L900 413L788 473L675 443L563 443L450 431L338 413L225 419L113 419L0 461Z" fill="#2dd4bf"></path></svg>